<?xml version="1.0" encoding="utf-8"?>
<!-- Generator: Adobe Illustrator 26.0.1, SVG Export Plug-In . SVG Version: 6.00 Build 0)  -->
<svg version="1.1" id="Layer_1" xmlns="http://www.w3.org/2000/svg" xmlns:xlink="http://www.w3.org/1999/xlink" x="0px" y="0px"
	 viewBox="0 0 1477.87 687" style="enable-background:new 0 0 1477.87 687;" xml:space="preserve">
<style type="text/css">
	.st0{fill:#FFFFFF;}
</style>
<g>
	<g>
		<g>
			<path class="st0" d="M40.8,532.41h14.44l40.4,93.78H76.56l-8.74-21.46H27.15l-8.48,21.46H0L40.8,532.41z M61.99,590.43
				l-14.44-38.15l-14.7,38.15H61.99z"/>
			<path class="st0" d="M104.91,532.41h16.69v93.78h-16.69V532.41z"/>
			<path class="st0" d="M142.26,532.41h26.1l24.37,66.63h0.4l24.11-66.63h26.23v93.78h-16.56v-75.37h-0.27l-28.48,75.37h-11.66
				l-28.08-75.37h-0.27v75.37h-15.9V532.41z"/>
			<path class="st0" d="M264.13,532.41h62.12v14.57h-45.43v23.84h43.05v14.04h-43.05v26.49h47.82v14.84h-64.51V532.41z"/>
			<path class="st0" d="M378.04,532.41h26.1l24.37,66.63h0.4l24.11-66.63h26.23v93.78h-16.56v-75.37h-0.27l-28.48,75.37h-11.66
				l-28.08-75.37h-0.27v75.37h-15.9V532.41z"/>
			<path class="st0" d="M499.91,532.41h62.12v14.57H516.6v23.84h43.05v14.04H516.6v26.49h47.82v14.84h-64.51V532.41z"/>
			<path class="st0" d="M580.71,532.41h26.1l24.37,66.63h0.4l24.11-66.63h26.23v93.78h-16.56v-75.37h-0.27l-28.48,75.37h-11.66
				l-28.08-75.37h-0.27v75.37h-15.9V532.41z"/>
			<path class="st0" d="M702.58,532.41h36.56c3.53,0,7.02,0.42,10.46,1.26c3.44,0.84,6.51,2.21,9.21,4.11
				c2.69,1.9,4.88,4.35,6.56,7.35c1.68,3,2.52,6.62,2.52,10.86c0,5.3-1.5,9.67-4.5,13.11c-3,3.44-6.93,5.92-11.79,7.42v0.27
				c5.92,0.79,10.77,3.09,14.57,6.89c3.79,3.8,5.7,8.88,5.7,15.23c0,5.12-1.02,9.43-3.05,12.92c-2.03,3.49-4.7,6.29-8.01,8.41
				c-3.31,2.12-7.11,3.64-11.39,4.57c-4.28,0.93-8.63,1.39-13.05,1.39h-33.78V532.41z M719.27,570.56h14.84
				c5.56,0,9.8-1.1,12.72-3.31c2.91-2.21,4.37-5.34,4.37-9.4c0-4.24-1.5-7.24-4.5-9.01c-3-1.77-7.68-2.65-14.04-2.65h-13.38V570.56z
				 M719.27,612.15h14.97c2.12,0,4.41-0.15,6.89-0.46c2.47-0.31,4.75-0.95,6.82-1.92c2.07-0.97,3.8-2.38,5.17-4.24
				s2.05-4.33,2.05-7.42c0-4.94-1.68-8.39-5.03-10.33c-3.36-1.94-8.43-2.91-15.23-2.91h-15.63V612.15z"/>
			<path class="st0" d="M788.28,532.41h62.12v14.57h-45.43v23.84h43.05v14.04h-43.05v26.49h47.82v14.84h-64.51V532.41z"/>
			<path class="st0" d="M869.08,532.41h32.59c4.42,0,8.7,0.46,12.85,1.39c4.15,0.93,7.84,2.45,11.06,4.57
				c3.22,2.12,5.81,4.9,7.75,8.35c1.94,3.44,2.92,7.64,2.92,12.58c0,6.8-1.92,12.34-5.76,16.62c-3.84,4.28-9.07,7.18-15.7,8.68
				l25.04,41.59h-20.13l-21.72-39.74h-12.19v39.74h-16.69V532.41z M899.41,572.81c2.38,0,4.77-0.18,7.15-0.53
				c2.38-0.35,4.52-1.01,6.42-1.99c1.9-0.97,3.46-2.36,4.7-4.17c1.24-1.81,1.85-4.13,1.85-6.95c0-2.56-0.58-4.66-1.72-6.29
				c-1.15-1.63-2.61-2.93-4.37-3.91c-1.77-0.97-3.78-1.63-6.03-1.99c-2.25-0.35-4.44-0.53-6.56-0.53h-15.1v26.36H899.41z"/>
			<path class="st0" d="M985.51,532.41h30.6c5.39,0,10.24,0.49,14.57,1.46c4.33,0.97,8.04,2.56,11.13,4.77
				c3.09,2.21,5.47,5.03,7.15,8.48c1.68,3.44,2.52,7.6,2.52,12.45c0,5.21-0.97,9.58-2.91,13.11c-1.94,3.53-4.57,6.38-7.88,8.54
				c-3.31,2.16-7.18,3.73-11.59,4.7c-4.42,0.97-9.1,1.46-14.04,1.46h-12.85v38.81h-16.69V532.41z M1013.86,573.34
				c2.74,0,5.34-0.2,7.82-0.6c2.47-0.4,4.68-1.1,6.62-2.12c1.94-1.01,3.49-2.41,4.64-4.17c1.15-1.76,1.72-4.06,1.72-6.89
				c0-2.74-0.58-4.97-1.72-6.69c-1.15-1.72-2.67-3.07-4.57-4.04c-1.9-0.97-4.06-1.61-6.49-1.92c-2.43-0.31-4.92-0.46-7.48-0.46
				h-12.19v26.89H1013.86z"/>
			<path class="st0" d="M1061.81,579.04c0-7.5,1.26-14.28,3.78-20.33c2.52-6.05,6-11.19,10.46-15.43c4.46-4.24,9.76-7.5,15.9-9.8
				c6.14-2.3,12.83-3.44,20.07-3.44c7.33,0,14.08,1.15,20.27,3.44c6.18,2.3,11.52,5.56,16.03,9.8c4.5,4.24,8.01,9.38,10.53,15.43
				c2.52,6.05,3.78,12.83,3.78,20.33c0,7.33-1.26,14.02-3.78,20.07c-2.52,6.05-6.03,11.26-10.53,15.63
				c-4.5,4.37-9.85,7.77-16.03,10.2c-6.18,2.43-12.94,3.64-20.27,3.64c-7.24,0-13.93-1.22-20.07-3.64
				c-6.14-2.43-11.44-5.83-15.9-10.2c-4.46-4.37-7.95-9.58-10.46-15.63C1063.07,593.06,1061.81,586.37,1061.81,579.04z
				 M1079.96,579.04c0,5.03,0.77,9.65,2.32,13.84c1.54,4.2,3.75,7.84,6.62,10.93c2.87,3.09,6.27,5.5,10.2,7.22
				c3.93,1.72,8.28,2.58,13.05,2.58s9.14-0.86,13.11-2.58c3.97-1.72,7.39-4.13,10.27-7.22c2.87-3.09,5.08-6.73,6.62-10.93
				c1.54-4.19,2.32-8.81,2.32-13.84c0-4.86-0.77-9.36-2.32-13.51c-1.55-4.15-3.73-7.77-6.56-10.86c-2.83-3.09-6.23-5.52-10.2-7.29
				c-3.97-1.77-8.39-2.65-13.25-2.65c-4.86,0-9.25,0.88-13.18,2.65c-3.93,1.77-7.31,4.2-10.13,7.29c-2.83,3.09-5.01,6.71-6.56,10.86
				C1080.73,569.68,1079.96,574.18,1079.96,579.04z"/>
			<path class="st0" d="M1178.77,532.41h32.59c4.42,0,8.7,0.46,12.85,1.39c4.15,0.93,7.84,2.45,11.06,4.57
				c3.22,2.12,5.81,4.9,7.75,8.35c1.94,3.44,2.92,7.64,2.92,12.58c0,6.8-1.92,12.34-5.76,16.62c-3.84,4.28-9.07,7.18-15.7,8.68
				l25.04,41.59h-20.13l-21.72-39.74h-12.19v39.74h-16.69V532.41z M1209.11,572.81c2.38,0,4.77-0.18,7.15-0.53
				c2.38-0.35,4.52-1.01,6.42-1.99c1.9-0.97,3.46-2.36,4.7-4.17c1.24-1.81,1.85-4.13,1.85-6.95c0-2.56-0.58-4.66-1.72-6.29
				c-1.15-1.63-2.61-2.93-4.37-3.91c-1.77-0.97-3.78-1.63-6.03-1.99c-2.25-0.35-4.44-0.53-6.56-0.53h-15.1v26.36H1209.11z"/>
			<path class="st0" d="M1279.45,546.98h-28.74v-14.57h74.18v14.57h-28.74v79.21h-16.69V546.98z"/>
			<path class="st0" d="M1357.2,532.41h14.44l40.4,93.78h-19.07l-8.74-21.46h-40.67l-8.48,21.46h-18.68L1357.2,532.41z
				 M1378.4,590.43l-14.44-38.15l-14.7,38.15H1378.4z"/>
			<path class="st0" d="M1421.31,532.41H1438v78.95h39.87v14.84h-56.56V532.41z"/>
		</g>
	</g>
	<g>
		<polygon class="st0" points="239.7,117.75 78.46,465.78 3.44,431.34 194.35,20.22 		"/>
		<path class="st0" d="M485.83,423.25c-53.97-78.04-143.13-124.63-238.5-124.63c-29.3,0-57.97,4.5-85.23,12.87l-58.34,125.47
			c38.34-36.72,89.17-57.32,143.57-57.32c64.98,0,124.94,29.35,164.52,80.52l4.17,5.39L491,431.87L485.83,423.25z"/>
		<path class="st0" d="M469.03,384.86L291.76,5.37h-90.52l138.71,298.19C389.28,318.59,433.95,346.55,469.03,384.86z"/>
	</g>
	<g>
		<polygon class="st0" points="1230.79,0 1148.19,0 1148.19,465.68 1231.07,465.68 1231.07,272.96 1231.07,203.24 1231.07,69.72 		
			"/>
		<path class="st0" d="M1243.61,69.72h47.97c12.71,0,25.1,0.77,37.16,2.3c12.06,1.54,22.8,4.72,32.23,9.54
			c9.42,4.83,16.99,11.51,22.69,20.06c5.69,8.55,8.55,19.63,8.55,33.22c0,14.04-2.86,25.44-8.55,34.2
			c-5.7,8.78-13.38,15.68-23.02,20.72c-9.65,5.05-20.62,8.55-32.89,10.52c-12.28,1.97-25.22,2.96-38.81,2.96h-45.56l0.11,69.72
			h51.37c24.55,0,47.79-2.4,69.72-7.24c21.92-4.82,41.11-12.6,57.55-23.35c16.44-10.74,29.49-24.88,39.14-42.42
			c9.64-17.53,14.47-39.24,14.47-65.12c0-24.11-4.17-44.73-12.5-61.83c-8.33-17.1-20.17-31.13-35.52-42.1
			c-15.35-10.95-33.77-18.85-55.25-23.68C1350.99,2.42,1326.87,0,1300.13,0h-56.52V69.72z"/>
	</g>
	<g>
		<polygon class="st0" points="573.82,0 543.07,0 543.07,465.68 622,465.68 622,125.37 		"/>
		<polygon class="st0" points="623.31,91.43 762.75,465.68 820.64,465.68 962.05,91.43 995.55,0 915.35,0 795.64,330.85 
			793.67,330.85 672.64,0 589,0 		"/>
		<g>
			<g>
				<g>
					<polygon class="st0" points="963.37,125.58 963.37,465.68 1045.58,465.68 1045.58,0 1011.38,0 					"/>
				</g>
			</g>
		</g>
	</g>
</g>
</svg>
